<svg xml:space="preserve"
     xmlns="http://www.w3.org/2000/svg"
     xmlns:xlink="http://www.w3.org/1999/xlink"
     xmlns:html="http://www.w3.org/1999/xhtml"
id="monarch-legacy-of-monsters-201-downloads-by-day-day" x="0px" y="0px"
width="1920.000000px" height="1080.000000px"
viewBox="0 0 1920.000000 1080.000000" enable-background="new 0 0 1920.000000 1080.000000" role="img">
<title>
monarch-legacy-of-monsters-201-downloads-by-day-day
</title>
<desc>
Daily series for monarch-legacy-of-monsters-201: upeers_total solid, useeds_total dashed.
</desc>
<title>
monarch-legacy-of-monsters-201-downloads-by-day-day
</title>
 <g id="annotations">
<text x="960.000000" y="126.000000" font-family="Atkinson Hyperlegible" font-size="26.000000pt" text-anchor="middle" text-align="center" font-weight="600" font-style="normal"  style="fill:rgb(118,118,118); fill-opacity:1; stroke:rgb(118,118,118); stroke-opacity:0; stroke-width:0.5"> monarch-legacy-of-monsters-201 downloads by day</text>
 <g id="axes-lines">
<text x="960.000000" y="1007.000000" font-family="Atkinson Hyperlegible" font-size="18.000000pt" text-anchor="middle" text-align="center" font-weight="500" font-style="normal"  style="fill:rgb(118,118,118); fill-opacity:1; stroke:rgb(118,118,118); stroke-opacity:0; stroke-width:0.5"> DAY</text>
<text x="73.000000" y="540.000000" font-family="Atkinson Hyperlegible" font-size="18.000000pt" text-anchor="middle" text-align="center" dominant-baseline="central" font-weight="500" font-style="normal"  style="fill:rgb(118,118,118); fill-opacity:1; stroke:rgb(118,118,118); stroke-opacity:0; stroke-width:0.5" transform="rotate(-90,73,540)"> DOWNLOADERS</text>
 </g>
 <g id="tic-y-label-lines">
<line x1="218.000000" y1="799.866073" x2="1702.000000" y2="799.866073" style="fill:rgb(0,0,255); fill-opacity:0; stroke:rgb(242,242,242); stroke-opacity:1; stroke-width:4" />
<line x1="218.000000" y1="731.866073" x2="1702.000000" y2="731.866073" style="fill:rgb(0,0,255); fill-opacity:0; stroke:rgb(242,242,242); stroke-opacity:1; stroke-width:4" />
<line x1="218.000000" y1="663.866073" x2="1702.000000" y2="663.866073" style="fill:rgb(0,0,255); fill-opacity:0; stroke:rgb(242,242,242); stroke-opacity:1; stroke-width:4" />
<line x1="218.000000" y1="595.866073" x2="1702.000000" y2="595.866073" style="fill:rgb(0,0,255); fill-opacity:0; stroke:rgb(242,242,242); stroke-opacity:1; stroke-width:4" />
<line x1="218.000000" y1="527.866073" x2="1702.000000" y2="527.866073" style="fill:rgb(0,0,255); fill-opacity:0; stroke:rgb(242,242,242); stroke-opacity:1; stroke-width:4" />
<line x1="218.000000" y1="459.866073" x2="1702.000000" y2="459.866073" style="fill:rgb(0,0,255); fill-opacity:0; stroke:rgb(242,242,242); stroke-opacity:1; stroke-width:4" />
<line x1="218.000000" y1="391.866073" x2="1702.000000" y2="391.866073" style="fill:rgb(0,0,255); fill-opacity:0; stroke:rgb(242,242,242); stroke-opacity:1; stroke-width:4" />
<line x1="218.000000" y1="323.866073" x2="1702.000000" y2="323.866073" style="fill:rgb(0,0,255); fill-opacity:0; stroke:rgb(242,242,242); stroke-opacity:1; stroke-width:4" />
<line x1="218.000000" y1="255.866073" x2="1702.000000" y2="255.866073" style="fill:rgb(0,0,255); fill-opacity:0; stroke:rgb(242,242,242); stroke-opacity:1; stroke-width:4" />
<line x1="218.000000" y1="187.866073" x2="1702.000000" y2="187.866073" style="fill:rgb(0,0,255); fill-opacity:0; stroke:rgb(242,242,242); stroke-opacity:1; stroke-width:4" />
 </g>
 <g id="tic-x-labels">
<text x="200.000000" y="898.000000" font-family="Atkinson Hyperlegible" font-size="14.000000pt" text-anchor="middle" text-align="center" dominant-baseline="central" font-weight="400" font-style="normal"  style="fill:rgb(118,118,118); fill-opacity:1; stroke:rgb(118,118,118); stroke-opacity:0; stroke-width:0.5"> 1</text>
<text x="270.515464" y="898.000000" font-family="Atkinson Hyperlegible" font-size="14.000000pt" text-anchor="middle" text-align="center" dominant-baseline="central" font-weight="400" font-style="normal"  style="fill:rgb(118,118,118); fill-opacity:1; stroke:rgb(118,118,118); stroke-opacity:0; stroke-width:0.5"> 10</text>
<text x="341.030928" y="898.000000" font-family="Atkinson Hyperlegible" font-size="14.000000pt" text-anchor="middle" text-align="center" dominant-baseline="central" font-weight="400" font-style="normal"  style="fill:rgb(118,118,118); fill-opacity:1; stroke:rgb(118,118,118); stroke-opacity:0; stroke-width:0.5"> 19</text>
<text x="411.546392" y="898.000000" font-family="Atkinson Hyperlegible" font-size="14.000000pt" text-anchor="middle" text-align="center" dominant-baseline="central" font-weight="400" font-style="normal"  style="fill:rgb(118,118,118); fill-opacity:1; stroke:rgb(118,118,118); stroke-opacity:0; stroke-width:0.5"> 28</text>
<text x="482.061856" y="898.000000" font-family="Atkinson Hyperlegible" font-size="14.000000pt" text-anchor="middle" text-align="center" dominant-baseline="central" font-weight="400" font-style="normal"  style="fill:rgb(118,118,118); fill-opacity:1; stroke:rgb(118,118,118); stroke-opacity:0; stroke-width:0.5"> 37</text>
<text x="552.577320" y="898.000000" font-family="Atkinson Hyperlegible" font-size="14.000000pt" text-anchor="middle" text-align="center" dominant-baseline="central" font-weight="400" font-style="normal"  style="fill:rgb(118,118,118); fill-opacity:1; stroke:rgb(118,118,118); stroke-opacity:0; stroke-width:0.5"> 46</text>
<text x="623.092784" y="898.000000" font-family="Atkinson Hyperlegible" font-size="14.000000pt" text-anchor="middle" text-align="center" dominant-baseline="central" font-weight="400" font-style="normal"  style="fill:rgb(118,118,118); fill-opacity:1; stroke:rgb(118,118,118); stroke-opacity:0; stroke-width:0.5"> 55</text>
<text x="693.608247" y="898.000000" font-family="Atkinson Hyperlegible" font-size="14.000000pt" text-anchor="middle" text-align="center" dominant-baseline="central" font-weight="400" font-style="normal"  style="fill:rgb(118,118,118); fill-opacity:1; stroke:rgb(118,118,118); stroke-opacity:0; stroke-width:0.5"> 64</text>
<text x="764.123711" y="898.000000" font-family="Atkinson Hyperlegible" font-size="14.000000pt" text-anchor="middle" text-align="center" dominant-baseline="central" font-weight="400" font-style="normal"  style="fill:rgb(118,118,118); fill-opacity:1; stroke:rgb(118,118,118); stroke-opacity:0; stroke-width:0.5"> 73</text>
<text x="834.639175" y="898.000000" font-family="Atkinson Hyperlegible" font-size="14.000000pt" text-anchor="middle" text-align="center" dominant-baseline="central" font-weight="400" font-style="normal"  style="fill:rgb(118,118,118); fill-opacity:1; stroke:rgb(118,118,118); stroke-opacity:0; stroke-width:0.5"> 82</text>
<text x="905.154639" y="898.000000" font-family="Atkinson Hyperlegible" font-size="14.000000pt" text-anchor="middle" text-align="center" dominant-baseline="central" font-weight="400" font-style="normal"  style="fill:rgb(118,118,118); fill-opacity:1; stroke:rgb(118,118,118); stroke-opacity:0; stroke-width:0.5"> 91</text>
<text x="975.670103" y="898.000000" font-family="Atkinson Hyperlegible" font-size="14.000000pt" text-anchor="middle" text-align="center" dominant-baseline="central" font-weight="400" font-style="normal"  style="fill:rgb(118,118,118); fill-opacity:1; stroke:rgb(118,118,118); stroke-opacity:0; stroke-width:0.5"> 100</text>
<text x="1046.185567" y="898.000000" font-family="Atkinson Hyperlegible" font-size="14.000000pt" text-anchor="middle" text-align="center" dominant-baseline="central" font-weight="400" font-style="normal"  style="fill:rgb(118,118,118); fill-opacity:1; stroke:rgb(118,118,118); stroke-opacity:0; stroke-width:0.5"> 109</text>
<text x="1116.701031" y="898.000000" font-family="Atkinson Hyperlegible" font-size="14.000000pt" text-anchor="middle" text-align="center" dominant-baseline="central" font-weight="400" font-style="normal"  style="fill:rgb(118,118,118); fill-opacity:1; stroke:rgb(118,118,118); stroke-opacity:0; stroke-width:0.5"> 118</text>
<text x="1187.216495" y="898.000000" font-family="Atkinson Hyperlegible" font-size="14.000000pt" text-anchor="middle" text-align="center" dominant-baseline="central" font-weight="400" font-style="normal"  style="fill:rgb(118,118,118); fill-opacity:1; stroke:rgb(118,118,118); stroke-opacity:0; stroke-width:0.5"> 127</text>
<text x="1257.731959" y="898.000000" font-family="Atkinson Hyperlegible" font-size="14.000000pt" text-anchor="middle" text-align="center" dominant-baseline="central" font-weight="400" font-style="normal"  style="fill:rgb(118,118,118); fill-opacity:1; stroke:rgb(118,118,118); stroke-opacity:0; stroke-width:0.5"> 136</text>
<text x="1328.247423" y="898.000000" font-family="Atkinson Hyperlegible" font-size="14.000000pt" text-anchor="middle" text-align="center" dominant-baseline="central" font-weight="400" font-style="normal"  style="fill:rgb(118,118,118); fill-opacity:1; stroke:rgb(118,118,118); stroke-opacity:0; stroke-width:0.5"> 145</text>
<text x="1398.762887" y="898.000000" font-family="Atkinson Hyperlegible" font-size="14.000000pt" text-anchor="middle" text-align="center" dominant-baseline="central" font-weight="400" font-style="normal"  style="fill:rgb(118,118,118); fill-opacity:1; stroke:rgb(118,118,118); stroke-opacity:0; stroke-width:0.5"> 154</text>
<text x="1469.278351" y="898.000000" font-family="Atkinson Hyperlegible" font-size="14.000000pt" text-anchor="middle" text-align="center" dominant-baseline="central" font-weight="400" font-style="normal"  style="fill:rgb(118,118,118); fill-opacity:1; stroke:rgb(118,118,118); stroke-opacity:0; stroke-width:0.5"> 163</text>
<text x="1539.793814" y="898.000000" font-family="Atkinson Hyperlegible" font-size="14.000000pt" text-anchor="middle" text-align="center" dominant-baseline="central" font-weight="400" font-style="normal"  style="fill:rgb(118,118,118); fill-opacity:1; stroke:rgb(118,118,118); stroke-opacity:0; stroke-width:0.5"> 172</text>
<text x="1610.309278" y="898.000000" font-family="Atkinson Hyperlegible" font-size="14.000000pt" text-anchor="middle" text-align="center" dominant-baseline="central" font-weight="400" font-style="normal"  style="fill:rgb(118,118,118); fill-opacity:1; stroke:rgb(118,118,118); stroke-opacity:0; stroke-width:0.5"> 181</text>
<text x="1680.824742" y="898.000000" font-family="Atkinson Hyperlegible" font-size="14.000000pt" text-anchor="middle" text-align="center" dominant-baseline="central" font-weight="400" font-style="normal"  style="fill:rgb(118,118,118); fill-opacity:1; stroke:rgb(118,118,118); stroke-opacity:0; stroke-width:0.5"> 190</text>
 </g>
 <g id="tic-y-labels">
<text x="164.000000" y="869.866073" font-family="Atkinson Hyperlegible" font-size="14.000000pt" text-anchor="middle" text-align="center" dominant-baseline="central" font-weight="400" font-style="normal"  style="fill:rgb(118,118,118); fill-opacity:1; stroke:rgb(118,118,118); stroke-opacity:0; stroke-width:0.5"> 9k</text>
<text x="1756.000000" y="869.866073" font-family="Atkinson Hyperlegible" font-size="14.000000pt" text-anchor="middle" text-align="center" dominant-baseline="central" font-weight="400" font-style="normal"  style="fill:rgb(118,118,118); fill-opacity:1; stroke:rgb(118,118,118); stroke-opacity:0; stroke-width:0.5"> 9k</text>
<text x="164.000000" y="801.866073" font-family="Atkinson Hyperlegible" font-size="14.000000pt" text-anchor="middle" text-align="center" dominant-baseline="central" font-weight="400" font-style="normal"  style="fill:rgb(118,118,118); fill-opacity:1; stroke:rgb(118,118,118); stroke-opacity:0; stroke-width:0.5"> 67k</text>
<text x="1756.000000" y="801.866073" font-family="Atkinson Hyperlegible" font-size="14.000000pt" text-anchor="middle" text-align="center" dominant-baseline="central" font-weight="400" font-style="normal"  style="fill:rgb(118,118,118); fill-opacity:1; stroke:rgb(118,118,118); stroke-opacity:0; stroke-width:0.5"> 67k</text>
<text x="164.000000" y="733.866073" font-family="Atkinson Hyperlegible" font-size="14.000000pt" text-anchor="middle" text-align="center" dominant-baseline="central" font-weight="400" font-style="normal"  style="fill:rgb(118,118,118); fill-opacity:1; stroke:rgb(118,118,118); stroke-opacity:0; stroke-width:0.5"> 125k</text>
<text x="1756.000000" y="733.866073" font-family="Atkinson Hyperlegible" font-size="14.000000pt" text-anchor="middle" text-align="center" dominant-baseline="central" font-weight="400" font-style="normal"  style="fill:rgb(118,118,118); fill-opacity:1; stroke:rgb(118,118,118); stroke-opacity:0; stroke-width:0.5"> 125k</text>
<text x="164.000000" y="665.866073" font-family="Atkinson Hyperlegible" font-size="14.000000pt" text-anchor="middle" text-align="center" dominant-baseline="central" font-weight="400" font-style="normal"  style="fill:rgb(118,118,118); fill-opacity:1; stroke:rgb(118,118,118); stroke-opacity:0; stroke-width:0.5"> 183k</text>
<text x="1756.000000" y="665.866073" font-family="Atkinson Hyperlegible" font-size="14.000000pt" text-anchor="middle" text-align="center" dominant-baseline="central" font-weight="400" font-style="normal"  style="fill:rgb(118,118,118); fill-opacity:1; stroke:rgb(118,118,118); stroke-opacity:0; stroke-width:0.5"> 183k</text>
<text x="164.000000" y="597.866073" font-family="Atkinson Hyperlegible" font-size="14.000000pt" text-anchor="middle" text-align="center" dominant-baseline="central" font-weight="400" font-style="normal"  style="fill:rgb(118,118,118); fill-opacity:1; stroke:rgb(118,118,118); stroke-opacity:0; stroke-width:0.5"> 241k</text>
<text x="1756.000000" y="597.866073" font-family="Atkinson Hyperlegible" font-size="14.000000pt" text-anchor="middle" text-align="center" dominant-baseline="central" font-weight="400" font-style="normal"  style="fill:rgb(118,118,118); fill-opacity:1; stroke:rgb(118,118,118); stroke-opacity:0; stroke-width:0.5"> 241k</text>
<text x="164.000000" y="529.866073" font-family="Atkinson Hyperlegible" font-size="14.000000pt" text-anchor="middle" text-align="center" dominant-baseline="central" font-weight="400" font-style="normal"  style="fill:rgb(118,118,118); fill-opacity:1; stroke:rgb(118,118,118); stroke-opacity:0; stroke-width:0.5"> 299k</text>
<text x="1756.000000" y="529.866073" font-family="Atkinson Hyperlegible" font-size="14.000000pt" text-anchor="middle" text-align="center" dominant-baseline="central" font-weight="400" font-style="normal"  style="fill:rgb(118,118,118); fill-opacity:1; stroke:rgb(118,118,118); stroke-opacity:0; stroke-width:0.5"> 299k</text>
<text x="164.000000" y="461.866073" font-family="Atkinson Hyperlegible" font-size="14.000000pt" text-anchor="middle" text-align="center" dominant-baseline="central" font-weight="400" font-style="normal"  style="fill:rgb(118,118,118); fill-opacity:1; stroke:rgb(118,118,118); stroke-opacity:0; stroke-width:0.5"> 357k</text>
<text x="1756.000000" y="461.866073" font-family="Atkinson Hyperlegible" font-size="14.000000pt" text-anchor="middle" text-align="center" dominant-baseline="central" font-weight="400" font-style="normal"  style="fill:rgb(118,118,118); fill-opacity:1; stroke:rgb(118,118,118); stroke-opacity:0; stroke-width:0.5"> 357k</text>
<text x="164.000000" y="393.866073" font-family="Atkinson Hyperlegible" font-size="14.000000pt" text-anchor="middle" text-align="center" dominant-baseline="central" font-weight="400" font-style="normal"  style="fill:rgb(118,118,118); fill-opacity:1; stroke:rgb(118,118,118); stroke-opacity:0; stroke-width:0.5"> 415k</text>
<text x="1756.000000" y="393.866073" font-family="Atkinson Hyperlegible" font-size="14.000000pt" text-anchor="middle" text-align="center" dominant-baseline="central" font-weight="400" font-style="normal"  style="fill:rgb(118,118,118); fill-opacity:1; stroke:rgb(118,118,118); stroke-opacity:0; stroke-width:0.5"> 415k</text>
<text x="164.000000" y="325.866073" font-family="Atkinson Hyperlegible" font-size="14.000000pt" text-anchor="middle" text-align="center" dominant-baseline="central" font-weight="400" font-style="normal"  style="fill:rgb(118,118,118); fill-opacity:1; stroke:rgb(118,118,118); stroke-opacity:0; stroke-width:0.5"> 473k</text>
<text x="1756.000000" y="325.866073" font-family="Atkinson Hyperlegible" font-size="14.000000pt" text-anchor="middle" text-align="center" dominant-baseline="central" font-weight="400" font-style="normal"  style="fill:rgb(118,118,118); fill-opacity:1; stroke:rgb(118,118,118); stroke-opacity:0; stroke-width:0.5"> 473k</text>
<text x="164.000000" y="257.866073" font-family="Atkinson Hyperlegible" font-size="14.000000pt" text-anchor="middle" text-align="center" dominant-baseline="central" font-weight="400" font-style="normal"  style="fill:rgb(118,118,118); fill-opacity:1; stroke:rgb(118,118,118); stroke-opacity:0; stroke-width:0.5"> 531k</text>
<text x="1756.000000" y="257.866073" font-family="Atkinson Hyperlegible" font-size="14.000000pt" text-anchor="middle" text-align="center" dominant-baseline="central" font-weight="400" font-style="normal"  style="fill:rgb(118,118,118); fill-opacity:1; stroke:rgb(118,118,118); stroke-opacity:0; stroke-width:0.5"> 531k</text>
<text x="164.000000" y="189.866073" font-family="Atkinson Hyperlegible" font-size="14.000000pt" text-anchor="middle" text-align="center" dominant-baseline="central" font-weight="400" font-style="normal"  style="fill:rgb(118,118,118); fill-opacity:1; stroke:rgb(118,118,118); stroke-opacity:0; stroke-width:0.5"> 589k</text>
<text x="1756.000000" y="189.866073" font-family="Atkinson Hyperlegible" font-size="14.000000pt" text-anchor="middle" text-align="center" dominant-baseline="central" font-weight="400" font-style="normal"  style="fill:rgb(118,118,118); fill-opacity:1; stroke:rgb(118,118,118); stroke-opacity:0; stroke-width:0.5"> 589k</text>
 </g>
 </g>
 <g id="weekend-bands-monarch-legacy-of-monsters-201 downloads by day">
<rect x="200.000000" y="200.000000" width="15.670103" height="680.000000"
 style="fill:rgb(148,148,148); fill-opacity:0.15; stroke:rgb(148,148,148); stroke-opacity:0; stroke-width:0" />
<rect x="254.845361" y="200.000000" width="15.670103" height="680.000000"
 style="fill:rgb(148,148,148); fill-opacity:0.15; stroke:rgb(148,148,148); stroke-opacity:0; stroke-width:0" />
<rect x="309.690722" y="200.000000" width="15.670103" height="680.000000"
 style="fill:rgb(148,148,148); fill-opacity:0.15; stroke:rgb(148,148,148); stroke-opacity:0; stroke-width:0" />
<rect x="364.536082" y="200.000000" width="15.670103" height="680.000000"
 style="fill:rgb(148,148,148); fill-opacity:0.15; stroke:rgb(148,148,148); stroke-opacity:0; stroke-width:0" />
<rect x="419.381443" y="200.000000" width="15.670103" height="680.000000"
 style="fill:rgb(148,148,148); fill-opacity:0.15; stroke:rgb(148,148,148); stroke-opacity:0; stroke-width:0" />
<rect x="474.226804" y="200.000000" width="15.670103" height="680.000000"
 style="fill:rgb(148,148,148); fill-opacity:0.15; stroke:rgb(148,148,148); stroke-opacity:0; stroke-width:0" />
<rect x="529.072165" y="200.000000" width="15.670103" height="680.000000"
 style="fill:rgb(148,148,148); fill-opacity:0.15; stroke:rgb(148,148,148); stroke-opacity:0; stroke-width:0" />
<rect x="583.917526" y="200.000000" width="15.670103" height="680.000000"
 style="fill:rgb(148,148,148); fill-opacity:0.15; stroke:rgb(148,148,148); stroke-opacity:0; stroke-width:0" />
<rect x="638.762887" y="200.000000" width="15.670103" height="680.000000"
 style="fill:rgb(148,148,148); fill-opacity:0.15; stroke:rgb(148,148,148); stroke-opacity:0; stroke-width:0" />
<rect x="693.608247" y="200.000000" width="15.670103" height="680.000000"
 style="fill:rgb(148,148,148); fill-opacity:0.15; stroke:rgb(148,148,148); stroke-opacity:0; stroke-width:0" />
<rect x="748.453608" y="200.000000" width="15.670103" height="680.000000"
 style="fill:rgb(148,148,148); fill-opacity:0.15; stroke:rgb(148,148,148); stroke-opacity:0; stroke-width:0" />
<rect x="803.298969" y="200.000000" width="15.670103" height="680.000000"
 style="fill:rgb(148,148,148); fill-opacity:0.15; stroke:rgb(148,148,148); stroke-opacity:0; stroke-width:0" />
<rect x="858.144330" y="200.000000" width="15.670103" height="680.000000"
 style="fill:rgb(148,148,148); fill-opacity:0.15; stroke:rgb(148,148,148); stroke-opacity:0; stroke-width:0" />
<rect x="912.989691" y="200.000000" width="15.670103" height="680.000000"
 style="fill:rgb(148,148,148); fill-opacity:0.15; stroke:rgb(148,148,148); stroke-opacity:0; stroke-width:0" />
<rect x="967.835052" y="200.000000" width="15.670103" height="680.000000"
 style="fill:rgb(148,148,148); fill-opacity:0.15; stroke:rgb(148,148,148); stroke-opacity:0; stroke-width:0" />
<rect x="1022.680412" y="200.000000" width="15.670103" height="680.000000"
 style="fill:rgb(148,148,148); fill-opacity:0.15; stroke:rgb(148,148,148); stroke-opacity:0; stroke-width:0" />
<rect x="1077.525773" y="200.000000" width="15.670103" height="680.000000"
 style="fill:rgb(148,148,148); fill-opacity:0.15; stroke:rgb(148,148,148); stroke-opacity:0; stroke-width:0" />
<rect x="1132.371134" y="200.000000" width="15.670103" height="680.000000"
 style="fill:rgb(148,148,148); fill-opacity:0.15; stroke:rgb(148,148,148); stroke-opacity:0; stroke-width:0" />
<rect x="1187.216495" y="200.000000" width="7.835052" height="680.000000"
 style="fill:rgb(148,148,148); fill-opacity:0.15; stroke:rgb(148,148,148); stroke-opacity:0; stroke-width:0" />
<rect x="1234.226804" y="200.000000" width="15.670103" height="680.000000"
 style="fill:rgb(148,148,148); fill-opacity:0.15; stroke:rgb(148,148,148); stroke-opacity:0; stroke-width:0" />
<rect x="1289.072165" y="200.000000" width="15.670103" height="680.000000"
 style="fill:rgb(148,148,148); fill-opacity:0.15; stroke:rgb(148,148,148); stroke-opacity:0; stroke-width:0" />
<rect x="1343.917526" y="200.000000" width="15.670103" height="680.000000"
 style="fill:rgb(148,148,148); fill-opacity:0.15; stroke:rgb(148,148,148); stroke-opacity:0; stroke-width:0" />
<rect x="1398.762887" y="200.000000" width="15.670103" height="680.000000"
 style="fill:rgb(148,148,148); fill-opacity:0.15; stroke:rgb(148,148,148); stroke-opacity:0; stroke-width:0" />
<rect x="1453.608247" y="200.000000" width="15.670103" height="680.000000"
 style="fill:rgb(148,148,148); fill-opacity:0.15; stroke:rgb(148,148,148); stroke-opacity:0; stroke-width:0" />
<rect x="1508.453608" y="200.000000" width="15.670103" height="680.000000"
 style="fill:rgb(148,148,148); fill-opacity:0.15; stroke:rgb(148,148,148); stroke-opacity:0; stroke-width:0" />
<rect x="1563.298969" y="200.000000" width="15.670103" height="680.000000"
 style="fill:rgb(148,148,148); fill-opacity:0.15; stroke:rgb(148,148,148); stroke-opacity:0; stroke-width:0" />
<rect x="1618.144330" y="200.000000" width="15.670103" height="680.000000"
 style="fill:rgb(148,148,148); fill-opacity:0.15; stroke:rgb(148,148,148); stroke-opacity:0; stroke-width:0" />
<rect x="1672.989691" y="200.000000" width="15.670103" height="680.000000"
 style="fill:rgb(148,148,148); fill-opacity:0.15; stroke:rgb(148,148,148); stroke-opacity:0; stroke-width:0" />
 </g>
 <g id="polyline-monarch-legacy-of-monsters-201 downloads by day">
<polyline points="200,789.998 207.835,695.822 215.67,694.43 223.505,652.916 231.34,666.709 239.175,643.875 247.01,639.419 254.845,600.196 262.68,560.257 270.515,436.25 278.351,434.605 286.186,432.433 294.021,446.721 301.856,421.513 309.691,277.138 317.526,213.65 325.361,253.503 333.196,245.704 341.031,255.274 348.866,234.962 356.701,224.695 364.536,251.25 372.371,296.786 380.206,294.012 388.041,254.971 395.876,252.552 403.711,235.932 411.546,200 419.381,207.545 427.216,261.01 435.052,265.542 442.887,265.392 450.722,275.518 458.557,268.591 466.392,262.609 474.227,243.701 482.062,271.067 489.897,312.605 497.732,288.396 505.567,274.115 513.402,269.48 521.237,289.508 529.072,297.204 536.907,311.598 544.742,329.707 552.577,347.335 560.412,343.87 568.247,343.621 576.082,335.048 583.918,318.323 591.753,352.708 599.588,355.678 607.423,380.404 615.258,394.026 623.093,401.073 630.928,375.587 638.763,374.06 646.598,357.99 654.433,362.701 662.268,384.591 670.103,381.253 677.938,407.127 685.773,406.24 693.608,380.827 701.443,359.549 709.278,365.915 717.113,377.625 724.948,412.226 732.784,371.731 740.619,409.19 748.454,408.972 756.289,389.494 764.124,379.433 771.959,382.815 779.794,425.535 787.629,405.622 795.464,348.851 803.299,328.043 811.134,309.978 818.969,322.581 826.804,334.632 834.639,341.067 842.474,352.926 850.309,346.658 858.144,328.719 865.979,294.13 873.814,331.098 881.649,345.248 889.485,333.931 897.32,356.612 905.155,358.834 912.99,370.353 920.825,327.651 928.66,334.297 936.495,320.788 944.33,339.704 952.165,372.161 960,405.26 967.835,416.419 975.67,407.494 983.505,427.955 991.34,471.26 999.175,457.488 1007.01,501.002 1014.85,503.223 1022.68,472.726 1030.52,386.947 1038.35,350.435 1046.19,323.335 1054.02,326.067 1061.86,309.061 1069.69,336.299 1077.53,337.112 1085.36,348.693 1093.2,329.991 1101.03,295.398 1108.87,322.627 1116.7,328.822 1124.54,365.414 1132.37,388.18 1140.21,321.915 1148.04,321.831 1155.88,266.533 1163.71,319.103 1171.55,375.447 1179.38,385.196 1187.22,439.122 1195.05,397.85 1202.89,358.279 1210.72,356.459 1218.56,353.228 1226.39,377.557 1234.23,370.851 1242.06,363.644 1249.9,351.81 1257.73,366.022 1265.57,359.728 1273.4,369.629 1281.24,369.932 1289.07,368.211 1296.91,392.501 1304.74,403.186 1312.58,346.258 1320.41,349.317 1328.25,355.379 1336.08,376.846 1343.92,368.072 1351.75,498.24 1359.59,381.876 1367.42,368.524 1375.26,330.784 1383.09,398.117 1390.93,376.011 1398.76,406.058 1406.6,375.007 1414.43,430.216 1422.27,398.155 1430.1,448.308 1437.94,379.971 1445.77,395.878 1453.61,404.26 1461.44,425.994 1469.28,411.095 1477.11,409.684 1484.95,460.912 1492.78,432.799 1500.62,425.036 1508.45,468.087 1516.29,410.014 1524.12,367.767 1531.96,467.677 1539.79,510.364 1547.63,514.711 1555.46,466.273 1563.3,488.606 1571.13,508.537 1578.97,499.655 1586.8,496.198 1594.64,487.182 1602.47,499.483 1610.31,475.382 1618.14,509.364 1625.98,439.476 1633.81,468.901 1641.65,490.022 1649.48,544.062 1657.32,513.186 1665.15,520.295 1672.99,481.415 1680.82,467.496 1688.66,504.833 1696.49,501.197 1704.33,526.232 1712.16,505.241 1720,579.119 "  style="fill:rgb(0,0,255); fill-opacity:0; stroke:rgb(0,0,255); stroke-opacity:1; stroke-width:4" />
 </g>
 <g id="polyline-monarch-legacy-of-monsters-201 downloads by day uploaders">
<polyline points="200,864.098 207.835,850.432 215.67,847.97 223.505,852.121 231.34,856.056 239.175,858.006 247.01,860.031 254.845,838.312 262.68,826.044 270.515,818.168 278.351,823.118 286.186,826.702 294.021,835.542 301.856,838.018 309.691,791.353 317.526,789.408 325.361,803.397 333.196,813.423 341.031,821.073 348.866,823.414 356.701,824.111 364.536,822.948 372.371,823.108 380.206,826.361 388.041,832.626 395.876,835.394 403.711,836.372 411.546,838.105 419.381,833.448 427.216,828.875 435.052,826.759 442.887,828.199 450.722,832.31 458.557,834.853 466.392,838.537 474.227,835.271 482.062,834.411 489.897,837.043 497.732,837.353 505.567,841.968 513.402,841.505 521.237,841.736 529.072,839.536 536.907,839.118 544.742,838.707 552.577,841.71 560.412,841.935 568.247,844.792 576.082,847.362 583.918,843.02 591.753,839.942 599.588,839.779 607.423,841.943 615.258,843.766 623.093,845.072 630.928,850.901 638.763,848.604 646.598,845.723 654.433,843.936 662.268,842.518 670.103,846.412 677.938,848.129 685.773,849.889 693.608,844.13 701.443,841.483 709.278,842.832 717.113,845.299 724.948,849.601 732.784,850.981 740.619,853.653 748.454,854.313 756.289,856.49 764.124,856.443 771.959,853.176 779.794,858.178 787.629,854.625 795.464,855.824 803.299,858.463 811.134,858.413 818.969,858.735 826.804,860.435 834.639,861.367 842.474,861.916 850.309,862.632 858.144,861.997 865.979,862.416 873.814,861.536 881.649,863.751 889.485,864.808 897.32,864.78 905.155,865.699 912.99,865.001 920.825,864.551 928.66,863.838 936.495,863.819 944.33,866.033 952.165,866.849 960,867.992 967.835,868.678 975.67,868.452 983.505,868.27 991.34,868.452 999.175,866.028 1007.01,867.616 1014.85,867.954 1022.68,868.654 1030.52,869.066 1038.35,868.676 1046.19,869.491 1054.02,870.648 1061.86,869.894 1069.69,869.284 1077.53,870.861 1085.36,872.042 1093.2,869.824 1101.03,869.477 1108.87,870.999 1116.7,870.633 1124.54,870.368 1132.37,872.076 1140.21,871.496 1148.04,872.57 1155.88,869.576 1163.71,871.193 1171.55,871.449 1179.38,871.867 1187.22,873.216 1195.05,873.7 1202.89,872.717 1210.72,872.55 1218.56,872.38 1226.39,873.13 1234.23,872.113 1242.06,873.673 1249.9,873.404 1257.73,872.516 1265.57,873.162 1273.4,873.352 1281.24,873.968 1289.07,873.827 1296.91,873.564 1304.74,874.92 1312.58,873.941 1320.41,873.666 1328.25,873.236 1336.08,874.697 1343.92,874.886 1351.75,876.449 1359.59,874.284 1367.42,873.648 1375.26,874.107 1383.09,875.331 1390.93,874.605 1398.76,875.199 1406.6,875.126 1414.43,875.731 1422.27,874.813 1430.1,876.108 1437.94,875.943 1445.77,875.801 1453.61,876.435 1461.44,876.416 1469.28,875.882 1477.11,875.05 1484.95,875.901 1492.78,875.612 1500.62,875.558 1508.45,876.261 1516.29,874.61 1524.12,876.023 1531.96,876.949 1539.79,878.166 1547.63,878.406 1555.46,877.718 1563.3,878.463 1571.13,879.156 1578.97,877.945 1586.8,877.898 1594.64,877.738 1602.47,877.197 1610.31,877.899 1618.14,878.218 1625.98,879.001 1633.81,878.586 1641.65,877.665 1649.48,878.221 1657.32,878.322 1665.15,877.812 1672.99,876.106 1680.82,878.246 1688.66,879.268 1696.49,879.281 1704.33,879.354 1712.16,878.656 1720,880 " stroke-dasharray="5 15"  style="fill:rgb(0,0,255); fill-opacity:0; stroke:rgb(0,0,255); stroke-opacity:1; stroke-width:4" />
 </g>
</svg>
