<svg xml:space="preserve"
     xmlns="http://www.w3.org/2000/svg"
     xmlns:xlink="http://www.w3.org/1999/xlink"
     xmlns:html="http://www.w3.org/1999/xhtml"
id="send-help-downloads-by-day-day" x="0px" y="0px"
width="1920.000000px" height="1080.000000px"
viewBox="0 0 1920.000000 1080.000000" enable-background="new 0 0 1920.000000 1080.000000" role="img">
<title>
send-help-downloads-by-day-day
</title>
<desc>
Daily series for send-help: upeers_total solid, useeds_total dashed.
</desc>
<title>
send-help-downloads-by-day-day
</title>
 <g id="annotations">
<text x="960.000000" y="126.000000" font-family="Atkinson Hyperlegible" font-size="26.000000pt" text-anchor="middle" text-align="center" font-weight="600" font-style="normal"  style="fill:rgb(118,118,118); fill-opacity:1; stroke:rgb(118,118,118); stroke-opacity:0; stroke-width:0.5"> send-help downloads by day</text>
 <g id="axes-lines">
<text x="960.000000" y="1007.000000" font-family="Atkinson Hyperlegible" font-size="18.000000pt" text-anchor="middle" text-align="center" font-weight="500" font-style="normal"  style="fill:rgb(118,118,118); fill-opacity:1; stroke:rgb(118,118,118); stroke-opacity:0; stroke-width:0.5"> DAY</text>
<text x="73.000000" y="540.000000" font-family="Atkinson Hyperlegible" font-size="18.000000pt" text-anchor="middle" text-align="center" dominant-baseline="central" font-weight="500" font-style="normal"  style="fill:rgb(118,118,118); fill-opacity:1; stroke:rgb(118,118,118); stroke-opacity:0; stroke-width:0.5" transform="rotate(-90,73,540)"> DOWNLOADERS</text>
 </g>
 <g id="tic-y-label-lines">
<line x1="218.000000" y1="791.198590" x2="1702.000000" y2="791.198590" style="fill:rgb(0,0,255); fill-opacity:0; stroke:rgb(242,242,242); stroke-opacity:1; stroke-width:4" />
<line x1="218.000000" y1="723.198590" x2="1702.000000" y2="723.198590" style="fill:rgb(0,0,255); fill-opacity:0; stroke:rgb(242,242,242); stroke-opacity:1; stroke-width:4" />
<line x1="218.000000" y1="655.198590" x2="1702.000000" y2="655.198590" style="fill:rgb(0,0,255); fill-opacity:0; stroke:rgb(242,242,242); stroke-opacity:1; stroke-width:4" />
<line x1="218.000000" y1="587.198590" x2="1702.000000" y2="587.198590" style="fill:rgb(0,0,255); fill-opacity:0; stroke:rgb(242,242,242); stroke-opacity:1; stroke-width:4" />
<line x1="218.000000" y1="519.198590" x2="1702.000000" y2="519.198590" style="fill:rgb(0,0,255); fill-opacity:0; stroke:rgb(242,242,242); stroke-opacity:1; stroke-width:4" />
<line x1="218.000000" y1="451.198590" x2="1702.000000" y2="451.198590" style="fill:rgb(0,0,255); fill-opacity:0; stroke:rgb(242,242,242); stroke-opacity:1; stroke-width:4" />
<line x1="218.000000" y1="383.198590" x2="1702.000000" y2="383.198590" style="fill:rgb(0,0,255); fill-opacity:0; stroke:rgb(242,242,242); stroke-opacity:1; stroke-width:4" />
<line x1="218.000000" y1="315.198590" x2="1702.000000" y2="315.198590" style="fill:rgb(0,0,255); fill-opacity:0; stroke:rgb(242,242,242); stroke-opacity:1; stroke-width:4" />
<line x1="218.000000" y1="247.198590" x2="1702.000000" y2="247.198590" style="fill:rgb(0,0,255); fill-opacity:0; stroke:rgb(242,242,242); stroke-opacity:1; stroke-width:4" />
<line x1="218.000000" y1="179.198590" x2="1702.000000" y2="179.198590" style="fill:rgb(0,0,255); fill-opacity:0; stroke:rgb(242,242,242); stroke-opacity:1; stroke-width:4" />
 </g>
 <g id="tic-x-labels">
<text x="200.000000" y="898.000000" font-family="Atkinson Hyperlegible" font-size="14.000000pt" text-anchor="middle" text-align="center" dominant-baseline="central" font-weight="400" font-style="normal"  style="fill:rgb(118,118,118); fill-opacity:1; stroke:rgb(118,118,118); stroke-opacity:0; stroke-width:0.5"> 1</text>
<text x="273.253012" y="898.000000" font-family="Atkinson Hyperlegible" font-size="14.000000pt" text-anchor="middle" text-align="center" dominant-baseline="central" font-weight="400" font-style="normal"  style="fill:rgb(118,118,118); fill-opacity:1; stroke:rgb(118,118,118); stroke-opacity:0; stroke-width:0.5"> 9</text>
<text x="346.506024" y="898.000000" font-family="Atkinson Hyperlegible" font-size="14.000000pt" text-anchor="middle" text-align="center" dominant-baseline="central" font-weight="400" font-style="normal"  style="fill:rgb(118,118,118); fill-opacity:1; stroke:rgb(118,118,118); stroke-opacity:0; stroke-width:0.5"> 17</text>
<text x="419.759036" y="898.000000" font-family="Atkinson Hyperlegible" font-size="14.000000pt" text-anchor="middle" text-align="center" dominant-baseline="central" font-weight="400" font-style="normal"  style="fill:rgb(118,118,118); fill-opacity:1; stroke:rgb(118,118,118); stroke-opacity:0; stroke-width:0.5"> 25</text>
<text x="493.012048" y="898.000000" font-family="Atkinson Hyperlegible" font-size="14.000000pt" text-anchor="middle" text-align="center" dominant-baseline="central" font-weight="400" font-style="normal"  style="fill:rgb(118,118,118); fill-opacity:1; stroke:rgb(118,118,118); stroke-opacity:0; stroke-width:0.5"> 33</text>
<text x="566.265060" y="898.000000" font-family="Atkinson Hyperlegible" font-size="14.000000pt" text-anchor="middle" text-align="center" dominant-baseline="central" font-weight="400" font-style="normal"  style="fill:rgb(118,118,118); fill-opacity:1; stroke:rgb(118,118,118); stroke-opacity:0; stroke-width:0.5"> 41</text>
<text x="639.518072" y="898.000000" font-family="Atkinson Hyperlegible" font-size="14.000000pt" text-anchor="middle" text-align="center" dominant-baseline="central" font-weight="400" font-style="normal"  style="fill:rgb(118,118,118); fill-opacity:1; stroke:rgb(118,118,118); stroke-opacity:0; stroke-width:0.5"> 49</text>
<text x="712.771084" y="898.000000" font-family="Atkinson Hyperlegible" font-size="14.000000pt" text-anchor="middle" text-align="center" dominant-baseline="central" font-weight="400" font-style="normal"  style="fill:rgb(118,118,118); fill-opacity:1; stroke:rgb(118,118,118); stroke-opacity:0; stroke-width:0.5"> 57</text>
<text x="786.024096" y="898.000000" font-family="Atkinson Hyperlegible" font-size="14.000000pt" text-anchor="middle" text-align="center" dominant-baseline="central" font-weight="400" font-style="normal"  style="fill:rgb(118,118,118); fill-opacity:1; stroke:rgb(118,118,118); stroke-opacity:0; stroke-width:0.5"> 65</text>
<text x="859.277108" y="898.000000" font-family="Atkinson Hyperlegible" font-size="14.000000pt" text-anchor="middle" text-align="center" dominant-baseline="central" font-weight="400" font-style="normal"  style="fill:rgb(118,118,118); fill-opacity:1; stroke:rgb(118,118,118); stroke-opacity:0; stroke-width:0.5"> 73</text>
<text x="932.530120" y="898.000000" font-family="Atkinson Hyperlegible" font-size="14.000000pt" text-anchor="middle" text-align="center" dominant-baseline="central" font-weight="400" font-style="normal"  style="fill:rgb(118,118,118); fill-opacity:1; stroke:rgb(118,118,118); stroke-opacity:0; stroke-width:0.5"> 81</text>
<text x="1005.783133" y="898.000000" font-family="Atkinson Hyperlegible" font-size="14.000000pt" text-anchor="middle" text-align="center" dominant-baseline="central" font-weight="400" font-style="normal"  style="fill:rgb(118,118,118); fill-opacity:1; stroke:rgb(118,118,118); stroke-opacity:0; stroke-width:0.5"> 89</text>
<text x="1079.036145" y="898.000000" font-family="Atkinson Hyperlegible" font-size="14.000000pt" text-anchor="middle" text-align="center" dominant-baseline="central" font-weight="400" font-style="normal"  style="fill:rgb(118,118,118); fill-opacity:1; stroke:rgb(118,118,118); stroke-opacity:0; stroke-width:0.5"> 97</text>
<text x="1152.289157" y="898.000000" font-family="Atkinson Hyperlegible" font-size="14.000000pt" text-anchor="middle" text-align="center" dominant-baseline="central" font-weight="400" font-style="normal"  style="fill:rgb(118,118,118); fill-opacity:1; stroke:rgb(118,118,118); stroke-opacity:0; stroke-width:0.5"> 105</text>
<text x="1225.542169" y="898.000000" font-family="Atkinson Hyperlegible" font-size="14.000000pt" text-anchor="middle" text-align="center" dominant-baseline="central" font-weight="400" font-style="normal"  style="fill:rgb(118,118,118); fill-opacity:1; stroke:rgb(118,118,118); stroke-opacity:0; stroke-width:0.5"> 113</text>
<text x="1298.795181" y="898.000000" font-family="Atkinson Hyperlegible" font-size="14.000000pt" text-anchor="middle" text-align="center" dominant-baseline="central" font-weight="400" font-style="normal"  style="fill:rgb(118,118,118); fill-opacity:1; stroke:rgb(118,118,118); stroke-opacity:0; stroke-width:0.5"> 121</text>
<text x="1372.048193" y="898.000000" font-family="Atkinson Hyperlegible" font-size="14.000000pt" text-anchor="middle" text-align="center" dominant-baseline="central" font-weight="400" font-style="normal"  style="fill:rgb(118,118,118); fill-opacity:1; stroke:rgb(118,118,118); stroke-opacity:0; stroke-width:0.5"> 129</text>
<text x="1445.301205" y="898.000000" font-family="Atkinson Hyperlegible" font-size="14.000000pt" text-anchor="middle" text-align="center" dominant-baseline="central" font-weight="400" font-style="normal"  style="fill:rgb(118,118,118); fill-opacity:1; stroke:rgb(118,118,118); stroke-opacity:0; stroke-width:0.5"> 137</text>
<text x="1518.554217" y="898.000000" font-family="Atkinson Hyperlegible" font-size="14.000000pt" text-anchor="middle" text-align="center" dominant-baseline="central" font-weight="400" font-style="normal"  style="fill:rgb(118,118,118); fill-opacity:1; stroke:rgb(118,118,118); stroke-opacity:0; stroke-width:0.5"> 145</text>
<text x="1591.807229" y="898.000000" font-family="Atkinson Hyperlegible" font-size="14.000000pt" text-anchor="middle" text-align="center" dominant-baseline="central" font-weight="400" font-style="normal"  style="fill:rgb(118,118,118); fill-opacity:1; stroke:rgb(118,118,118); stroke-opacity:0; stroke-width:0.5"> 153</text>
<text x="1665.060241" y="898.000000" font-family="Atkinson Hyperlegible" font-size="14.000000pt" text-anchor="middle" text-align="center" dominant-baseline="central" font-weight="400" font-style="normal"  style="fill:rgb(118,118,118); fill-opacity:1; stroke:rgb(118,118,118); stroke-opacity:0; stroke-width:0.5"> 161</text>
 </g>
 <g id="tic-y-labels">
<text x="164.000000" y="861.198590" font-family="Atkinson Hyperlegible" font-size="14.000000pt" text-anchor="middle" text-align="center" dominant-baseline="central" font-weight="400" font-style="normal"  style="fill:rgb(118,118,118); fill-opacity:1; stroke:rgb(118,118,118); stroke-opacity:0; stroke-width:0.5"> 14k</text>
<text x="1756.000000" y="861.198590" font-family="Atkinson Hyperlegible" font-size="14.000000pt" text-anchor="middle" text-align="center" dominant-baseline="central" font-weight="400" font-style="normal"  style="fill:rgb(118,118,118); fill-opacity:1; stroke:rgb(118,118,118); stroke-opacity:0; stroke-width:0.5"> 14k</text>
<text x="164.000000" y="793.198590" font-family="Atkinson Hyperlegible" font-size="14.000000pt" text-anchor="middle" text-align="center" dominant-baseline="central" font-weight="400" font-style="normal"  style="fill:rgb(118,118,118); fill-opacity:1; stroke:rgb(118,118,118); stroke-opacity:0; stroke-width:0.5"> 66k</text>
<text x="1756.000000" y="793.198590" font-family="Atkinson Hyperlegible" font-size="14.000000pt" text-anchor="middle" text-align="center" dominant-baseline="central" font-weight="400" font-style="normal"  style="fill:rgb(118,118,118); fill-opacity:1; stroke:rgb(118,118,118); stroke-opacity:0; stroke-width:0.5"> 66k</text>
<text x="164.000000" y="725.198590" font-family="Atkinson Hyperlegible" font-size="14.000000pt" text-anchor="middle" text-align="center" dominant-baseline="central" font-weight="400" font-style="normal"  style="fill:rgb(118,118,118); fill-opacity:1; stroke:rgb(118,118,118); stroke-opacity:0; stroke-width:0.5"> 117k</text>
<text x="1756.000000" y="725.198590" font-family="Atkinson Hyperlegible" font-size="14.000000pt" text-anchor="middle" text-align="center" dominant-baseline="central" font-weight="400" font-style="normal"  style="fill:rgb(118,118,118); fill-opacity:1; stroke:rgb(118,118,118); stroke-opacity:0; stroke-width:0.5"> 117k</text>
<text x="164.000000" y="657.198590" font-family="Atkinson Hyperlegible" font-size="14.000000pt" text-anchor="middle" text-align="center" dominant-baseline="central" font-weight="400" font-style="normal"  style="fill:rgb(118,118,118); fill-opacity:1; stroke:rgb(118,118,118); stroke-opacity:0; stroke-width:0.5"> 168k</text>
<text x="1756.000000" y="657.198590" font-family="Atkinson Hyperlegible" font-size="14.000000pt" text-anchor="middle" text-align="center" dominant-baseline="central" font-weight="400" font-style="normal"  style="fill:rgb(118,118,118); fill-opacity:1; stroke:rgb(118,118,118); stroke-opacity:0; stroke-width:0.5"> 168k</text>
<text x="164.000000" y="589.198590" font-family="Atkinson Hyperlegible" font-size="14.000000pt" text-anchor="middle" text-align="center" dominant-baseline="central" font-weight="400" font-style="normal"  style="fill:rgb(118,118,118); fill-opacity:1; stroke:rgb(118,118,118); stroke-opacity:0; stroke-width:0.5"> 220k</text>
<text x="1756.000000" y="589.198590" font-family="Atkinson Hyperlegible" font-size="14.000000pt" text-anchor="middle" text-align="center" dominant-baseline="central" font-weight="400" font-style="normal"  style="fill:rgb(118,118,118); fill-opacity:1; stroke:rgb(118,118,118); stroke-opacity:0; stroke-width:0.5"> 220k</text>
<text x="164.000000" y="521.198590" font-family="Atkinson Hyperlegible" font-size="14.000000pt" text-anchor="middle" text-align="center" dominant-baseline="central" font-weight="400" font-style="normal"  style="fill:rgb(118,118,118); fill-opacity:1; stroke:rgb(118,118,118); stroke-opacity:0; stroke-width:0.5"> 271k</text>
<text x="1756.000000" y="521.198590" font-family="Atkinson Hyperlegible" font-size="14.000000pt" text-anchor="middle" text-align="center" dominant-baseline="central" font-weight="400" font-style="normal"  style="fill:rgb(118,118,118); fill-opacity:1; stroke:rgb(118,118,118); stroke-opacity:0; stroke-width:0.5"> 271k</text>
<text x="164.000000" y="453.198590" font-family="Atkinson Hyperlegible" font-size="14.000000pt" text-anchor="middle" text-align="center" dominant-baseline="central" font-weight="400" font-style="normal"  style="fill:rgb(118,118,118); fill-opacity:1; stroke:rgb(118,118,118); stroke-opacity:0; stroke-width:0.5"> 322k</text>
<text x="1756.000000" y="453.198590" font-family="Atkinson Hyperlegible" font-size="14.000000pt" text-anchor="middle" text-align="center" dominant-baseline="central" font-weight="400" font-style="normal"  style="fill:rgb(118,118,118); fill-opacity:1; stroke:rgb(118,118,118); stroke-opacity:0; stroke-width:0.5"> 322k</text>
<text x="164.000000" y="385.198590" font-family="Atkinson Hyperlegible" font-size="14.000000pt" text-anchor="middle" text-align="center" dominant-baseline="central" font-weight="400" font-style="normal"  style="fill:rgb(118,118,118); fill-opacity:1; stroke:rgb(118,118,118); stroke-opacity:0; stroke-width:0.5"> 374k</text>
<text x="1756.000000" y="385.198590" font-family="Atkinson Hyperlegible" font-size="14.000000pt" text-anchor="middle" text-align="center" dominant-baseline="central" font-weight="400" font-style="normal"  style="fill:rgb(118,118,118); fill-opacity:1; stroke:rgb(118,118,118); stroke-opacity:0; stroke-width:0.5"> 374k</text>
<text x="164.000000" y="317.198590" font-family="Atkinson Hyperlegible" font-size="14.000000pt" text-anchor="middle" text-align="center" dominant-baseline="central" font-weight="400" font-style="normal"  style="fill:rgb(118,118,118); fill-opacity:1; stroke:rgb(118,118,118); stroke-opacity:0; stroke-width:0.5"> 425k</text>
<text x="1756.000000" y="317.198590" font-family="Atkinson Hyperlegible" font-size="14.000000pt" text-anchor="middle" text-align="center" dominant-baseline="central" font-weight="400" font-style="normal"  style="fill:rgb(118,118,118); fill-opacity:1; stroke:rgb(118,118,118); stroke-opacity:0; stroke-width:0.5"> 425k</text>
<text x="164.000000" y="249.198590" font-family="Atkinson Hyperlegible" font-size="14.000000pt" text-anchor="middle" text-align="center" dominant-baseline="central" font-weight="400" font-style="normal"  style="fill:rgb(118,118,118); fill-opacity:1; stroke:rgb(118,118,118); stroke-opacity:0; stroke-width:0.5"> 477k</text>
<text x="1756.000000" y="249.198590" font-family="Atkinson Hyperlegible" font-size="14.000000pt" text-anchor="middle" text-align="center" dominant-baseline="central" font-weight="400" font-style="normal"  style="fill:rgb(118,118,118); fill-opacity:1; stroke:rgb(118,118,118); stroke-opacity:0; stroke-width:0.5"> 477k</text>
<text x="164.000000" y="181.198590" font-family="Atkinson Hyperlegible" font-size="14.000000pt" text-anchor="middle" text-align="center" dominant-baseline="central" font-weight="400" font-style="normal"  style="fill:rgb(118,118,118); fill-opacity:1; stroke:rgb(118,118,118); stroke-opacity:0; stroke-width:0.5"> 528k</text>
<text x="1756.000000" y="181.198590" font-family="Atkinson Hyperlegible" font-size="14.000000pt" text-anchor="middle" text-align="center" dominant-baseline="central" font-weight="400" font-style="normal"  style="fill:rgb(118,118,118); fill-opacity:1; stroke:rgb(118,118,118); stroke-opacity:0; stroke-width:0.5"> 528k</text>
 </g>
 </g>
 <g id="weekend-bands-send-help downloads by day">
<rect x="236.626506" y="200.000000" width="18.313253" height="680.000000"
 style="fill:rgb(148,148,148); fill-opacity:0.15; stroke:rgb(148,148,148); stroke-opacity:0; stroke-width:0" />
<rect x="300.722892" y="200.000000" width="18.313253" height="680.000000"
 style="fill:rgb(148,148,148); fill-opacity:0.15; stroke:rgb(148,148,148); stroke-opacity:0; stroke-width:0" />
<rect x="364.819277" y="200.000000" width="18.313253" height="680.000000"
 style="fill:rgb(148,148,148); fill-opacity:0.15; stroke:rgb(148,148,148); stroke-opacity:0; stroke-width:0" />
<rect x="428.915663" y="200.000000" width="18.313253" height="680.000000"
 style="fill:rgb(148,148,148); fill-opacity:0.15; stroke:rgb(148,148,148); stroke-opacity:0; stroke-width:0" />
<rect x="493.012048" y="200.000000" width="18.313253" height="680.000000"
 style="fill:rgb(148,148,148); fill-opacity:0.15; stroke:rgb(148,148,148); stroke-opacity:0; stroke-width:0" />
<rect x="557.108434" y="200.000000" width="18.313253" height="680.000000"
 style="fill:rgb(148,148,148); fill-opacity:0.15; stroke:rgb(148,148,148); stroke-opacity:0; stroke-width:0" />
<rect x="621.204819" y="200.000000" width="18.313253" height="680.000000"
 style="fill:rgb(148,148,148); fill-opacity:0.15; stroke:rgb(148,148,148); stroke-opacity:0; stroke-width:0" />
<rect x="685.301205" y="200.000000" width="18.313253" height="680.000000"
 style="fill:rgb(148,148,148); fill-opacity:0.15; stroke:rgb(148,148,148); stroke-opacity:0; stroke-width:0" />
<rect x="749.397590" y="200.000000" width="18.313253" height="680.000000"
 style="fill:rgb(148,148,148); fill-opacity:0.15; stroke:rgb(148,148,148); stroke-opacity:0; stroke-width:0" />
<rect x="813.493976" y="200.000000" width="18.313253" height="680.000000"
 style="fill:rgb(148,148,148); fill-opacity:0.15; stroke:rgb(148,148,148); stroke-opacity:0; stroke-width:0" />
<rect x="877.590361" y="200.000000" width="18.313253" height="680.000000"
 style="fill:rgb(148,148,148); fill-opacity:0.15; stroke:rgb(148,148,148); stroke-opacity:0; stroke-width:0" />
<rect x="941.686747" y="200.000000" width="18.313253" height="680.000000"
 style="fill:rgb(148,148,148); fill-opacity:0.15; stroke:rgb(148,148,148); stroke-opacity:0; stroke-width:0" />
<rect x="1005.783133" y="200.000000" width="18.313253" height="680.000000"
 style="fill:rgb(148,148,148); fill-opacity:0.15; stroke:rgb(148,148,148); stroke-opacity:0; stroke-width:0" />
<rect x="1069.879518" y="200.000000" width="18.313253" height="680.000000"
 style="fill:rgb(148,148,148); fill-opacity:0.15; stroke:rgb(148,148,148); stroke-opacity:0; stroke-width:0" />
<rect x="1133.975904" y="200.000000" width="18.313253" height="680.000000"
 style="fill:rgb(148,148,148); fill-opacity:0.15; stroke:rgb(148,148,148); stroke-opacity:0; stroke-width:0" />
<rect x="1198.072289" y="200.000000" width="18.313253" height="680.000000"
 style="fill:rgb(148,148,148); fill-opacity:0.15; stroke:rgb(148,148,148); stroke-opacity:0; stroke-width:0" />
<rect x="1262.168675" y="200.000000" width="18.313253" height="680.000000"
 style="fill:rgb(148,148,148); fill-opacity:0.15; stroke:rgb(148,148,148); stroke-opacity:0; stroke-width:0" />
<rect x="1326.265060" y="200.000000" width="18.313253" height="680.000000"
 style="fill:rgb(148,148,148); fill-opacity:0.15; stroke:rgb(148,148,148); stroke-opacity:0; stroke-width:0" />
<rect x="1390.361446" y="200.000000" width="18.313253" height="680.000000"
 style="fill:rgb(148,148,148); fill-opacity:0.15; stroke:rgb(148,148,148); stroke-opacity:0; stroke-width:0" />
<rect x="1454.457831" y="200.000000" width="18.313253" height="680.000000"
 style="fill:rgb(148,148,148); fill-opacity:0.15; stroke:rgb(148,148,148); stroke-opacity:0; stroke-width:0" />
<rect x="1518.554217" y="200.000000" width="9.156627" height="680.000000"
 style="fill:rgb(148,148,148); fill-opacity:0.15; stroke:rgb(148,148,148); stroke-opacity:0; stroke-width:0" />
<rect x="1573.493976" y="200.000000" width="18.313253" height="680.000000"
 style="fill:rgb(148,148,148); fill-opacity:0.15; stroke:rgb(148,148,148); stroke-opacity:0; stroke-width:0" />
<rect x="1637.590361" y="200.000000" width="18.313253" height="680.000000"
 style="fill:rgb(148,148,148); fill-opacity:0.15; stroke:rgb(148,148,148); stroke-opacity:0; stroke-width:0" />
<rect x="1701.686747" y="200.000000" width="18.313253" height="680.000000"
 style="fill:rgb(148,148,148); fill-opacity:0.15; stroke:rgb(148,148,148); stroke-opacity:0; stroke-width:0" />
 </g>
 <g id="polyline-send-help downloads by day">
<polyline points="200,833.137 209.157,511.642 218.313,366.095 227.47,352.675 236.627,239.395 245.783,200 254.94,217.963 264.096,248.523 273.253,248.603 282.41,244.093 291.566,272.066 300.723,274.296 309.88,288.12 319.036,306.04 328.193,337.996 337.349,330.462 346.506,334.783 355.663,349.379 364.819,375.42 373.976,362.509 383.133,370.382 392.289,401.755 401.446,399.724 410.602,320.284 419.759,281.754 428.916,287.097 438.072,300.235 447.229,291.112 456.386,313.09 465.542,348.839 474.699,674.528 483.855,323.534 493.012,336.878 502.169,313.875 511.325,332.94 520.482,341.729 529.639,374.73 538.795,400.247 547.952,371.777 557.108,325.437 566.265,320.552 575.422,336.988 584.578,389.859 593.735,399.397 602.892,375.875 612.048,369.751 621.205,369.066 630.361,375.714 639.518,396.399 648.675,377.759 657.831,412.808 666.988,428.247 676.145,382.806 685.301,352.756 694.458,353.474 703.614,352.807 712.771,368.475 721.928,371.674 731.084,361.613 740.241,359.614 749.398,399.155 758.554,369.789 767.711,386.418 776.867,384.529 786.024,374.643 795.181,362.152 804.337,330.841 813.494,360.674 822.651,354.454 831.807,338.962 840.964,334.796 850.12,351.734 859.277,409.299 868.434,413.993 877.59,394.779 886.747,377.184 895.904,427.573 905.06,448.914 914.217,468.094 923.373,481.819 932.53,491.89 941.687,466.471 950.843,401.323 960,339.433 969.157,341.802 978.313,318.903 987.47,339.498 996.627,326.282 1005.78,370.407 1014.94,394.776 1024.1,377.601 1033.25,346.453 1042.41,319.766 1051.57,371.618 1060.72,375.09 1069.88,375.432 1079.04,398.129 1088.19,388.35 1097.35,368.532 1106.51,416.012 1115.66,433.231 1124.82,464.917 1133.98,457.685 1143.13,431.211 1152.29,439.945 1161.45,416.499 1170.6,393.08 1179.76,414.978 1188.92,441.45 1198.07,419.198 1207.23,427.932 1216.39,413.007 1225.54,404.405 1234.7,417.943 1243.86,426.961 1253.01,397.427 1262.17,411.593 1271.33,416.225 1280.48,432.151 1289.64,423.92 1298.8,394.445 1307.95,420.887 1317.11,439.527 1326.27,427.939 1335.42,449.982 1344.58,474.615 1353.73,433.835 1362.89,443.944 1372.05,449.712 1381.2,419.978 1390.36,443.639 1399.52,424.117 1408.67,443.812 1417.83,446.76 1426.99,431.741 1436.14,414.92 1445.3,436.318 1454.46,455.866 1463.61,455.154 1472.77,468.427 1481.93,471.341 1491.08,434.008 1500.24,457.4 1509.4,432.007 1518.55,516.971 1527.71,459.493 1536.87,495.256 1546.02,532.909 1555.18,522.474 1564.34,507.196 1573.49,503.853 1582.65,508.383 1591.81,517.419 1600.96,506.663 1610.12,504.124 1619.28,486.276 1628.43,481.11 1637.59,487.471 1646.75,494.02 1655.9,522.107 1665.06,537.403 1674.22,547.673 1683.37,558.688 1692.53,550.166 1701.69,532.543 1710.84,540.909 1720,522.303 "  style="fill:rgb(0,0,255); fill-opacity:0; stroke:rgb(0,0,255); stroke-opacity:1; stroke-width:4" />
 </g>
 <g id="polyline-send-help downloads by day uploaders">
<polyline points="200,880 209.157,777.154 218.313,753.815 227.47,767.205 236.627,739.934 245.783,709.24 254.94,716.761 264.096,740.147 273.253,753.683 282.41,762.49 291.566,763.615 300.723,760.06 309.88,759.628 319.036,762.448 328.193,774.417 337.349,784.026 346.506,791.811 355.663,794.421 364.819,791.54 373.976,786.195 383.133,785.862 392.289,797.177 401.446,800.01 410.602,796.224 419.759,798.743 428.916,797.642 438.072,793.182 447.229,789.936 456.386,798.341 465.542,803.024 474.699,851.146 483.855,817.783 493.012,819.458 502.169,813.903 511.325,811.278 520.482,817.746 529.639,823.068 538.795,824.716 547.952,827.969 557.108,823.26 566.265,823.737 575.422,821.089 584.578,825.644 593.735,829.738 602.892,831.027 612.048,832.333 621.205,832.018 630.361,832.854 639.518,830.209 648.675,828.594 657.831,833.712 666.988,834.398 676.145,836.207 685.301,836.829 694.458,836.405 703.614,834.974 712.771,836.095 721.928,838.046 731.084,839.961 740.241,841.297 749.398,840.357 758.554,838.848 767.711,840.296 776.867,842.437 786.024,842.323 795.181,843.724 804.337,844.904 813.494,842.226 822.651,841.216 831.807,840.551 840.964,838.177 850.12,839.368 859.277,842.139 868.434,843.693 877.59,842.949 886.747,843.754 895.904,842.602 905.06,845.497 914.217,846.232 923.373,846.841 932.53,850.328 941.687,849.281 950.843,851.956 960,847.577 969.157,851.842 978.313,852.295 987.47,853.853 996.627,851.695 1005.78,854.257 1014.94,855.378 1024.1,852.568 1033.25,854.764 1042.41,856.475 1051.57,857.333 1060.72,858.392 1069.88,859.425 1079.04,858.255 1088.19,858.075 1097.35,859.382 1106.51,858.37 1115.66,858.604 1124.82,861.549 1133.98,860.218 1143.13,860.653 1152.29,859.513 1161.45,859.746 1170.6,861.89 1179.76,860.776 1188.92,862.273 1198.07,859.181 1207.23,862.415 1216.39,861.573 1225.54,860.737 1234.7,862.686 1243.86,864.462 1253.01,867.044 1262.17,867.443 1271.33,866.535 1280.48,865.06 1289.64,865.825 1298.8,866.115 1307.95,866.265 1317.11,866.679 1326.27,866.396 1335.42,866.462 1344.58,865.715 1353.73,865.903 1362.89,868.552 1372.05,869.626 1381.2,869.03 1390.36,870.412 1399.52,869.268 1408.67,868.718 1417.83,869.635 1426.99,870.622 1436.14,869.497 1445.3,869.782 1454.46,870.6 1463.61,870.093 1472.77,869.647 1481.93,868.614 1491.08,867.647 1500.24,866.872 1509.4,869.37 1518.55,874.465 1527.71,869.238 1536.87,873.277 1546.02,873.774 1555.18,872.752 1564.34,875.065 1573.49,873.678 1582.65,874.272 1591.81,872.902 1600.96,874.794 1610.12,874.677 1619.28,873.781 1628.43,874.542 1637.59,875.291 1646.75,873.711 1655.9,874.179 1665.06,874.635 1674.22,875.264 1683.37,876.173 1692.53,875.452 1701.69,874.81 1710.84,875.986 1720,873.65 " stroke-dasharray="5 15"  style="fill:rgb(0,0,255); fill-opacity:0; stroke:rgb(0,0,255); stroke-opacity:1; stroke-width:4" />
 </g>
</svg>
